<?xml version="1.0" standalone="no"?> <!DOCTYPE svg PUBLIC "-//W3C//DTD SVG 1.0//EN" "http://www.w3.org/TR/2001/REC-SVG-20010904/DTD/svg10.dtd" > <svg xmlns="http://www.w3.org/2000/svg" width="100%" height="100%">
<defs >
<font id="light" horiz-adv-x="923" ><font-face
    font-family="Museo Sans 100"
    units-per-em="2048"
    panose-1="2 0 0 0 0 0 0 0 0 0"
    ascent="1925"
    descent="-532"
    alphabetic="0" />
<missing-glyph horiz-adv-x="1044" d="M10 0V1434H1034V0H10ZM522 809L870 1331H174L522 809ZM584 717L932 195V1239L584 717ZM113 195L461 717L113 1239V195ZM174 102H870L522 625L174 102Z" />
<glyph unicode=" " glyph-name="space" horiz-adv-x="567" />
<glyph unicode="!" glyph-name="exclam" horiz-adv-x="604" d="M258 358V1434H346V358H258ZM244 0V125H365V0H244Z" />
<glyph unicode="&quot;" glyph-name="quotedbl" horiz-adv-x="595" d="M360 1143V1452H449V1143H360ZM147 1143V1452H236V1143H147Z" />
<glyph unicode="#" glyph-name="numbersign" horiz-adv-x="1501" d="M346 0L418 408H106L121 489H432L512 942H201L215 1024H526L598 1434H686L614 1024H1001L1073 1434H1161L1090 1024H1395L1380 942H1075L995 489H1300L1286 408H981L909 0H821L893 408H506L434
0H346ZM520 489H907L987 942H600L520 489Z" />
<glyph unicode="$" glyph-name="dollar" horiz-adv-x="1122" d="M135 154L195 221Q201 214 212 204T261 166T340 117T446 79T578 61Q714 61 805 139T897 344Q897 424 856 486T750 589T607 664T449 736T305 817T199 929T158 1087Q158 1224 261 1330T530 1454V1649H618V1456Q678
1454 735 1440T829 1406T896 1369T938 1338L952 1325L903 1249Q898 1254 889 1262T848 1292T782 1329T696 1358T590 1372Q438 1372 344 1287T250 1090Q250 1015 291 958T397 863T541 792T698 720T842 636T948 517T989 348Q989 199 888 95T618 -23V-213H530V-23Q458
-18 391 2T280 47T201 96T151 138L135 154Z" />
<glyph unicode="%" glyph-name="percent" horiz-adv-x="1437" d="M395 924Q285 924 207 1001T129 1190Q129 1300 207 1379T395 1458Q506 1458 585 1379T664 1190Q664 1079 585 1002T395 924ZM125 0L1212 1434H1319L231 0H125ZM395 1006Q472 1006 523 1059T575
1190Q575 1267 524 1321T395 1376Q319 1376 268 1322T217 1190Q217 1112 268 1059T395 1006ZM776 242Q776 352 854 431T1042 510Q1153 510 1232 431T1311 242Q1311 131 1232 53T1042 -25Q932 -25 854 53T776 242ZM864 242Q864 164 915 111T1042 57Q1119 57 1171
110T1223 242Q1223 319 1171 373T1042 428Q966 428 915 374T864 242Z" />
<glyph unicode="&amp;" glyph-name="ampersand" horiz-adv-x="1363" d="M133 391Q133 523 204 632T403 776V780Q395 782 381 788T332 818T269 875T220 968T197 1102Q197 1260 308 1359T614 1458Q642 1458 680 1453T742 1443L766 1438L737 1360Q662 1376 608 1376Q470
1376 380 1302T289 1104Q289 1067 295 1034T323 958T381 887T483 836T639 815H973V1024H1061V815H1260V733H1061V504Q1061 239 939 107T604 -25Q398 -25 266 93T133 391ZM225 395Q225 252 327 157T604 61T875 167T973 504V733H643Q435 733 330 642T225 395Z" />
<glyph unicode="&apos;" glyph-name="quotesingle" horiz-adv-x="382" d="M147 1143V1452H236V1143H147Z" />
<glyph unicode="(" glyph-name="parenleft" horiz-adv-x="567" d="M395 -195Q289 -9 230 220T170 686Q170 1111 395 1485H485Q254 1095 254 684Q254 212 485 -195H395Z" />
<glyph unicode=")" glyph-name="parenright" horiz-adv-x="567" d="M172 -195H82Q313 209 313 684Q313 1095 82 1485H172Q397 1111 397 686Q397 450 338 221T172 -195Z" />
<glyph unicode="*" glyph-name="asterisk" horiz-adv-x="962" d="M289 705L215 756L418 1022V1026L98 1122L125 1208L442 1098L432 1434H528L518 1098L838 1206L866 1122L545 1026V1022L745 756L674 702L483 977H479L289 705Z" />
<glyph unicode="+" glyph-name="plus" horiz-adv-x="1404" d="M174 539V621H659V1159H748V621H1231V539H748V0H659V539H174Z" />
<glyph unicode="," glyph-name="comma" horiz-adv-x="493" d="M92 -193L201 125H315L178 -193H92Z" />
<glyph unicode="-" glyph-name="hyphen" horiz-adv-x="729" d="M82 539V621H647V539H82Z" />
<glyph unicode="." glyph-name="period" horiz-adv-x="485" d="M180 0V129H305V0H180Z" />
<glyph unicode="/" glyph-name="slash" horiz-adv-x="786" d="M96 -86L614 1516H705L186 -86H96Z" />
<glyph unicode="0" glyph-name="zero" horiz-adv-x="1273" d="M637 -25Q530 -25 447 12T309 115T219 276T169 480T154 717T169 953T219 1156T309 1316T447 1420T637 1458Q769 1458 865 1402T1015 1241T1095 1008T1120 717Q1120 554 1095 425T1016 192T865 32T637
-25ZM526 61T637 61T826 110T947 251T1009 456T1028 717Q1028 833 1017 927T978 1106T907 1248T795 1338T637 1372T480 1339T368 1248T296 1106T257 927T246 717Q246 570 265 457T327 251T448 110Z" />
<glyph unicode="1" glyph-name="one" horiz-adv-x="905" d="M115 0V82H440V1249L442 1321H438Q424 1294 362 1233L193 1063L131 1122L440 1434H528V82H846V0H115Z" />
<glyph unicode="2" glyph-name="two" horiz-adv-x="1140" d="M135 0Q129 40 129 76Q129 155 155 226T225 351T327 456T447 550T574 637T695 726T796 822T867 933T893 1065Q893 1197 802 1284T559 1372Q495 1372 436 1351T337 1300T268 1240T224 1188L211 1167L145
1212Q150 1222 160 1238T209 1297T291 1372T408 1431T561 1458Q664 1458 746 1426T879 1338T958 1213T985 1065T959 917T889 793T788 689T667 596T541 509T421 420T319 324T249 213T223 82H1008V0H135Z" />
<glyph unicode="3" glyph-name="three" horiz-adv-x="1138" d="M100 174L166 240Q172 233 183 221T233 178T313 124T420 81T551 61Q693 61 801 161T909 414Q909 521 853 600T712 718T526 756H428L403 817L805 1286Q819 1302 834 1318T859 1344L868 1352V1356Q829
1352 758 1352H170V1434H991V1372L528 838Q585 838 644 827T768 786T884 710T968 588T1001 414Q1001 231 868 103T547 -25Q471 -25 397 -5T271 45T180 103T120 154L100 174Z" />
<glyph unicode="4" glyph-name="four" horiz-adv-x="1204" d="M74 410V471L817 1434H899V492H1112V410H899V0H811V410H74ZM197 492H811V1163L817 1292H813Q778 1241 741 1194L197 496V492Z" />
<glyph unicode="5" glyph-name="five" horiz-adv-x="1134" d="M121 182L193 238Q197 231 205 219T242 177T307 123T400 80T524 61Q693 61 807 168T922 436Q922 598 808 706T524 815Q451 815 382 794T279 750L246 729L180 752L262 1434H928V1352H340L289 924Q286
899 283 877T276 846L274 836H279Q290 843 310 854T395 883T524 901Q659 901 772 839T949 670T1014 436T949 203T771 36T524 -25Q446 -25 376 -4T262 48T184 108T136 160L121 182Z" />
<glyph unicode="6" glyph-name="six" horiz-adv-x="1212" d="M647 -25Q493 -25 378 66T204 309T145 645Q145 735 160 827T206 1011T288 1183T405 1325T563 1422T762 1458Q827 1458 889 1444T982 1416L1012 1401L969 1321Q959 1327 941 1335T868 1358T758 1372Q661
1372 578 1334T436 1231T334 1081T267 903T238 713H242Q302 803 411 856T647 909Q839 909 963 784T1087 453Q1087 339 1052 247T955 97T815 7T647 -25ZM645 61Q808 61 901 169T995 453Q995 623 898 723T643 823Q484 823 365 732T246 539Q246 479 263 413T316 285T399
172T510 92T645 61Z" />
<glyph unicode="7" glyph-name="seven" horiz-adv-x="1038" d="M215 0L813 1219Q829 1251 848 1284T878 1334L889 1352V1356Q848 1352 776 1352H80V1434H987V1372L307 0H215Z" />
<glyph unicode="8" glyph-name="eight" horiz-adv-x="1230" d="M141 410Q141 483 167 552T231 666T306 747T370 798L397 815Q211 929 211 1108Q211 1177 238 1239T317 1350T450 1429T633 1458Q830 1458 944 1358T1059 1096Q1059 1034 1039 969T997 862T939 775T894
718T866 690Q966 635 1021 562T1077 383Q1077 214 943 95T616 -25Q526 -25 442 4T290 86T182 223T141 410ZM985 381Q985 433 962 477T906 552T816 614T713 666T595 717T481 768Q466 761 444 747T383 699T312 627T257 530T233 410Q233 304 289 223T432 102T616 61Q708
61 792 101T930 215T985 381ZM303 1108Q303 1064 317 1026T361 958T422 903T503 855T592 814T689 773T784 731Q804 750 825 773T883 846T943 962T967 1096Q967 1222 874 1297T633 1372Q482 1372 393 1297T303 1108Z" />
<glyph unicode="9" glyph-name="nine" horiz-adv-x="1212" d="M451 -25Q385 -25 323 -11T230 18L201 33L244 113Q254 107 272 99T345 76T455 61Q552 61 635 99T776 202T878 353T945 531T975 721H971Q911 630 801 577T565 524Q373 524 249 649T125 981Q125 1094
160 1186T257 1336T397 1426T565 1458Q681 1458 777 1405T936 1261T1033 1048T1067 788Q1067 698 1052 606T1006 422T924 250T808 108T650 11T451 -25ZM569 610Q649 610 724 636T851 704T935 796T967 895Q967 971 938 1054T859 1208T732 1325T567 1372Q404 1372
311 1264T217 981Q217 811 314 711T569 610Z" />
<glyph unicode=":" glyph-name="colon" horiz-adv-x="600" d="M242 903V1024H358V903H242ZM242 0V121H358V0H242Z" />
<glyph unicode=";" glyph-name="semicolon" horiz-adv-x="600" d="M248 903V1024H365V903H248ZM156 -193L248 125H354L240 -193H156Z" />
<glyph unicode="&lt;" glyph-name="less" horiz-adv-x="1153" d="M111 543V616L1010 1020V922L238 582V578L1010 238V139L111 543Z" />
<glyph unicode="=" glyph-name="equal" horiz-adv-x="1441" d="M254 702V784H1188V702H254ZM254 375V457H1188V375H254Z" />
<glyph unicode="&gt;" glyph-name="greater" horiz-adv-x="1153" d="M143 139V238L915 578V582L143 922V1020L1042 616V543L143 139Z" />
<glyph unicode="?" glyph-name="question" horiz-adv-x="960" d="M332 358V449Q332 517 352 575T404 675T476 755T554 830T625 905T678 996T698 1108Q698 1220 615 1296T399 1372Q333 1372 268 1351T171 1308L139 1286L92 1356Q97 1360 106 1367T146 1391T210
1422T294 1447T397 1458Q572 1458 681 1359T791 1106Q791 1037 771 979T718 878T646 797T566 723T494 648T441 559T420 449V358H332ZM315 0V125H436V0H315Z" />
<glyph unicode="@" glyph-name="at" horiz-adv-x="1613" d="M143 498Q143 701 239 873T498 1145T852 1245Q979 1245 1074 1215T1222 1132T1301 1017T1327 883V178H1470V96H928Q764 96 648 212T532 494T648 777T928 895H1235Q1233 949 1212 995T1150 1080T1035
1141T864 1163Q690 1163 546 1074T319 833T236 498Q236 315 318 163T545 -76T864 -164V-250Q668 -250 502 -151T240 121T143 498ZM625 625T625 494T716 271T938 178H1235V813H942Q809 813 717 719Z" />
<glyph unicode="A" glyph-name="A" horiz-adv-x="1241" d="M1110 0L924 496H315L131 0H37L573 1434H668L1204 0H1110ZM623 1331H618Q588 1221 565 1159L346 578H893L676 1159Q666 1187 653 1230T631 1302L623 1331Z" />
<glyph unicode="B" glyph-name="B" horiz-adv-x="1267" d="M221 0V1434H702Q861 1434 963 1336T1065 1075Q1065 963 1015 884T879 762V758Q987 728 1054 630T1122 395Q1122 218 1010 109T723 0H221ZM309 795H700Q821 795 897 872T973 1075T899 1276T698 1352H309V795ZM309
82H715Q860 82 945 166T1030 395Q1030 539 942 626T713 713H309V82Z" />
<glyph unicode="C" glyph-name="C" horiz-adv-x="1503" d="M125 727Q125 932 218 1099T474 1362T836 1458Q931 1458 1019 1440T1164 1395T1264 1342T1328 1296L1348 1278L1294 1212Q1287 1219 1274 1229T1216 1268T1122 1317T996 1356T838 1374Q664 1374 522 1290T298
1058T217 727Q217 542 297 390T522 148T844 59Q930 59 1011 79T1148 127T1246 185T1309 234L1329 254L1384 193Q1376 184 1361 170T1294 118T1184 51T1034 -1T844 -25Q690 -25 556 34T327 195T179 434T125 727Z" />
<glyph unicode="D" glyph-name="D" horiz-adv-x="1517" d="M221 0V1434H672Q996 1434 1191 1244T1386 717Q1386 492 1296 329T1046 83T672 0H221ZM309 82H657Q949 82 1121 248T1294 717Q1294 1019 1121 1185T657 1352H309V82Z" />
<glyph unicode="E" glyph-name="E" horiz-adv-x="1169" d="M221 0V1434H1006V1352H309V764H881V682H309V82H1044V0H221Z" />
<glyph unicode="F" glyph-name="F" horiz-adv-x="1040" d="M221 0V1434H944V1352H309V754H858V672H309V0H221Z" />
<glyph unicode="G" glyph-name="G" horiz-adv-x="1550" d="M125 717Q125 921 218 1091T476 1359T840 1458Q930 1458 1015 1442T1156 1401T1255 1353T1319 1312L1339 1296L1286 1229Q1279 1235 1266 1244T1209 1279T1116 1323T992 1358T840 1374Q707 1374 591 1323T393
1185T264 976T217 717Q217 532 295 382T513 146T827 59Q913 59 995 83T1134 142T1233 211T1298 270L1319 295V571H1063V653H1407V0H1319V125L1321 186H1317Q1310 177 1297 163T1236 113T1137 49T1000 -2T827 -25Q680 -25 550 33T326 190T179 426T125 717Z" />
<glyph unicode="H" glyph-name="H" horiz-adv-x="1527" d="M221 0V1434H309V760H1219V1434H1307V0H1219V678H309V0H221Z" />
<glyph unicode="I" glyph-name="I" horiz-adv-x="530" d="M221 0V1434H309V0H221Z" />
<glyph unicode="J" glyph-name="J" horiz-adv-x="1050" d="M80 391V436H168V389Q168 257 225 174Q266 116 329 88T463 59Q519 59 569 76T663 130T732 233T758 389V1352H416V1434H846V391Q846 281 813 198T724 67T602 -2T463 -25Q389 -25 324 -3T202 67T113 197T80 391Z" />
<glyph unicode="K" glyph-name="K" horiz-adv-x="1187" d="M221 0V1434H309V795H575L985 1434H1092L651 758V754L1120 0H1014L575 713H309V0H221Z" />
<glyph unicode="L" glyph-name="L" horiz-adv-x="1042" d="M221 0V1434H309V82H993V0H221Z" />
<glyph unicode="M" glyph-name="M" horiz-adv-x="1740" d="M180 0L295 1434H381L799 532L868 371H872Q909 463 942 532L1360 1434H1446L1561 0H1473L1384 1094Q1381 1125 1380 1172T1378 1252V1284H1374Q1333 1163 1300 1094L915 276H825L442 1094Q429 1124 410
1172T379 1254L367 1288H362Q362 1163 356 1094L268 0H180Z" />
<glyph unicode="N" glyph-name="N" horiz-adv-x="1540" d="M221 0V1434H303L1120 309Q1141 280 1170 235T1218 160L1237 129H1241Q1231 238 1231 309V1434H1319V0H1237L420 1124Q399 1153 370 1198T322 1274L303 1305H299Q309 1196 309 1124V0H221Z" />
<glyph unicode="O" glyph-name="O" horiz-adv-x="1691" d="M121 727Q121 929 218 1097T482 1362T846 1458Q993 1458 1127 1401T1358 1248T1513 1015T1571 727Q1571 572 1514 432T1359 192T1127 34T846 -25Q698 -25 564 33T333 192T179 432T121 727ZM213 727Q213
542 298 388T528 147T846 59T1164 146T1394 388T1479 727Q1479 907 1394 1056T1164 1289T846 1374T528 1290T298 1056T213 727Z" />
<glyph unicode="P" glyph-name="P" horiz-adv-x="1212" d="M221 0V1434H692Q883 1434 1005 1321T1128 1016Q1128 824 1006 709T692 594H309V0H221ZM309 676H688Q847 676 941 766T1036 1016T942 1263T688 1352H309V676Z" />
<glyph unicode="Q" glyph-name="Q" horiz-adv-x="1718" d="M123 725Q123 928 219 1097T481 1362T844 1458Q994 1458 1128 1401T1360 1247T1515 1014T1573 725Q1573 581 1523 448T1384 215L1569 25L1511 -31L1329 158Q1127 -25 844 -25Q697 -25 563 34T333 193T180
433T123 725ZM215 725Q215 587 263 464T396 252T596 111T844 59Q958 59 1072 101T1270 219L1085 410L1143 465L1325 276Q1398 365 1439 482T1481 725Q1481 862 1432 982T1298 1189T1095 1324T844 1374Q713 1374 597 1325T396 1189T264 983T215 725Z" />
<glyph unicode="R" glyph-name="R" horiz-adv-x="1271" d="M221 0V1434H641Q811 1434 899 1391Q991 1345 1044 1256T1098 1047Q1098 895 1019 787T811 651V647Q825 631 844 596L1165 0H1061L721 635H309V0H221ZM309 717H698Q839 717 922 808T1006 1047Q1006 1142
961 1215T838 1323Q772 1352 637 1352H309V717Z" />
<glyph unicode="S" glyph-name="S" horiz-adv-x="1085" d="M115 154L174 221Q180 214 191 204T240 166T319 117T425 79T557 61Q693 61 785 139T877 344Q877 409 852 462T785 551T687 618T571 674T449 726T333 786T236 859T168 957T143 1087Q143 1236 264 1347T573
1458Q639 1458 700 1445T803 1412T876 1372T923 1338L938 1325L889 1249Q884 1254 875 1262T834 1292T768 1329T681 1358T575 1372Q423 1372 330 1287T236 1090Q236 1030 261 981T328 899T426 836T541 782T663 730T779 669T876 592T944 487T969 348Q969 189 855
82T553 -25Q474 -25 400 -7T276 38T188 90T132 136L115 154Z" />
<glyph unicode="T" glyph-name="T" horiz-adv-x="1189" d="M551 0V1352H16V1434H1174V1352H639V0H551Z" />
<glyph unicode="U" glyph-name="U" horiz-adv-x="1472" d="M201 492V1434H289V496Q289 294 410 177T735 59Q940 59 1062 177T1184 500V1434H1272V492Q1272 257 1124 116T737 -25T350 116T201 492Z" />
<glyph unicode="V" glyph-name="V" horiz-adv-x="1239" d="M571 0L35 1434H129L561 274Q572 244 586 201T608 130L616 102H621Q651 207 676 274L1110 1434H1204L668 0H571Z" />
<glyph unicode="W" glyph-name="W" horiz-adv-x="1882" d="M938 1309H934Q905 1174 879 1081L575 0H465L88 1434H180L483 266L518 113H522Q523 113 528 135T543 196T561 266L889 1434H987L1315 266Q1323 236 1333 197T1348 135T1354 113H1358Q1374 197 1393 266L1706
1434H1798L1411 0H1300L997 1081Q985 1122 972 1179T950 1272L942 1309H938Z" />
<glyph unicode="X" glyph-name="X" horiz-adv-x="1173" d="M61 0L524 758L113 1434H219L494 977L588 817H592Q637 907 680 977L956 1434H1063L647 758L1112 0H1008L676 545L584 698H580Q537 614 494 543L166 0H61Z" />
<glyph unicode="Y" glyph-name="Y" horiz-adv-x="1138" d="M526 0V623L39 1434H139L479 868L567 707H571Q616 799 659 868L999 1434H1100L614 623V0H526Z" />
<glyph unicode="Z" glyph-name="Z" horiz-adv-x="1200" d="M90 0V70L879 1221Q901 1253 925 1286T964 1336L977 1352V1356Q944 1352 872 1352H133V1434H1083V1364L295 213Q273 180 249 148T210 98L197 82V78Q229 82 301 82H1090V0H90Z" />
<glyph unicode="[" glyph-name="bracketleft" horiz-adv-x="546" d="M229 -195V1485H451V1403H317V-113H451V-195H229Z" />
<glyph unicode="\" glyph-name="backslash" horiz-adv-x="786" d="M600 -86L82 1516H172L690 -86H600Z" />
<glyph unicode="]" glyph-name="bracketright" horiz-adv-x="546" d="M96 -113H229V1403H96V1485H317V-195H96V-113Z" />
<glyph unicode="^" glyph-name="asciicircum" horiz-adv-x="1228" d="M158 516L561 1434H627L1030 516H936L594 1311L252 516H158Z" />
<glyph unicode="_" glyph-name="underscore" horiz-adv-x="1179" d="M82 0H1098V-82H82V0Z" />
<glyph unicode="`" glyph-name="grave" horiz-adv-x="1042" d="M557 1536L395 1763H510L647 1536H557Z" />
<glyph unicode="a" glyph-name="a" horiz-adv-x="1050" d="M96 272Q96 328 112 375T154 457T221 518T300 563T392 592T484 611T578 620T660 624T731 625H799V659Q799 965 518 965Q468 965 420 955T338 931T278 901T238 876L225 866L176 936Q181 941 190 948T233
975T304 1010T400 1037T522 1049Q700 1049 792 951T885 662V0H799V135Q799 159 801 182T805 216L807 227H803Q805 227 793 201T754 138T687 64T584 1T444 -25Q380 -25 320 -7T209 46T127 140T96 272ZM186 279Q186 190 256 123T449 55Q529 55 597 94T708 196T775
336T799 489V545H733Q692 545 668 545T595 542T514 536T434 522T356 500T290 467T235 420T200 358T186 279Z" />
<glyph unicode="b" glyph-name="b" horiz-adv-x="1185" d="M180 0V1434H266V901Q266 880 264 859T260 828L258 817H262Q266 826 273 842T311 898T380 968T486 1024T633 1049Q836 1049 955 901T1075 512Q1075 269 947 122T616 -25Q544 -25 481 -1T380 57T313 125T274
183L262 207H258Q266 170 266 117V0H180ZM264 510Q264 392 302 292T423 126T621 59Q777 59 881 181T985 512Q985 717 886 841T629 965Q556 965 492 939T376 859T294 716T264 510Z" />
<glyph unicode="c" glyph-name="c" horiz-adv-x="1128" d="M109 510Q109 629 151 731T266 902T434 1010T637 1049Q705 1049 768 1034T872 998T944 955T990 918L1004 903L950 834Q945 839 936 848T897 879T832 919T745 951T637 965Q452 965 326 839T199 510Q199
310 326 185T637 59Q700 59 758 74T855 111T923 155T966 192L979 207L1024 135Q1019 128 1009 118T961 80T883 31T775 -7T637 -25Q492 -25 373 40T181 228T109 510Z" />
<glyph unicode="d" glyph-name="d" horiz-adv-x="1187" d="M113 512Q113 754 240 901T571 1049Q643 1049 706 1025T808 967T875 899T914 841L926 817H930Q922 854 922 901V1434H1008V0H922V129Q922 150 924 169T928 198L930 207H926Q922 198 915 182T877 126T808
56T702 0T555 -25Q352 -25 233 123T113 512ZM203 512Q203 307 302 183T559 59Q632 59 696 85T812 165T894 308T924 514Q924 632 886 732T765 898T567 965Q411 965 307 843T203 512Z" />
<glyph unicode="e" glyph-name="e" horiz-adv-x="1132" d="M109 510Q109 636 149 739T259 910T417 1013T606 1049Q707 1049 788 1011T920 908T997 760T1024 582L1020 526H199Q199 311 325 185T637 59Q692 59 745 72T834 104T898 142T940 174L954 188L1001 117Q995
111 984 102T937 68T861 25T760 -9T637 -25Q492 -25 373 40T181 228T109 510ZM205 606H934Q927 784 834 876T604 969Q456 969 344 874T205 606Z" />
<glyph unicode="f" glyph-name="f" horiz-adv-x="624" d="M223 0V940H94V1018H223V1065Q223 1161 247 1233T307 1345T389 1407T473 1437T547 1444L600 1440V1360Q582 1364 553 1364T496 1359T433 1335T371 1286T327 1199T309 1067V1018H590V940H309V0H223Z" />
<glyph unicode="g" glyph-name="g" horiz-adv-x="1173" d="M244 -274Q258 -282 283 -294T381 -326T518 -346Q693 -346 800 -259T907 6V125Q907 146 909 167T913 198L915 209H911Q863 111 777 56T567 0Q366 0 240 145T113 528Q113 767 233 908T553 1049Q612 1049
664 1038T751 1009T815 970T861 927T889 888T905 859L909 848H913Q907 862 907 887V1024H993V6Q993 -107 955 -193T850 -330T701 -405T524 -430Q360 -430 203 -350L244 -274ZM573 84Q644 84 702 107T808 181T882 319T909 528Q909 965 553 965Q388 965 296 850T203
528Q203 323 305 204T573 84Z" />
<glyph unicode="h" glyph-name="h" horiz-adv-x="1200" d="M180 0V1434H266V844Q266 823 264 802T260 770L258 760H262Q274 792 296 827T356 903T442 975T556 1028T696 1049Q794 1049 861 1022T965 939T1018 815T1034 649V0H948V618Q948 680 944 724T926 816T885
895T811 945T696 965Q552 965 437 874T283 639Q266 583 266 500V0H180Z" />
<glyph unicode="i" glyph-name="i" horiz-adv-x="446" d="M172 1284V1434H274V1284H172ZM180 0V1024H266V0H180Z" />
<glyph unicode="j" glyph-name="j" horiz-adv-x="446" d="M180 1024H266V-41Q266 -138 242 -210T182 -321T100 -383T16 -413T-59 -420L-111 -416V-336Q-92 -340 -66 -340Q-36 -340 -8 -335T55 -311T117 -262T162 -175T180 -43V1024ZM172 1284V1434H274V1284H172Z" />
<glyph unicode="k" glyph-name="k" horiz-adv-x="983" d="M180 0V1434H266V621H449L780 1024H893L522 584V580L928 0H819L449 541H266V0H180Z" />
<glyph unicode="l" glyph-name="l" horiz-adv-x="471" d="M170 207V1434H256V233Q256 74 377 74L408 76V-4Q389 -8 371 -8Q349 -8 327 -5T275 12T223 48T186 111T170 207Z" />
<glyph unicode="m" glyph-name="m" horiz-adv-x="1880" d="M180 0V1024H266V844Q266 823 264 802T260 770L258 760H262Q300 875 418 962T655 1049Q806 1049 883 980T979 770H983Q1028 883 1137 966T1372 1049Q1560 1049 1637 947T1714 649V0H1628V618Q1628 681
1623 729T1601 824T1556 901T1482 950T1372 969Q1250 969 1149 876T1012 657Q991 591 991 500V0H905V618Q905 679 901 723T882 817T841 897T768 948T655 969Q525 969 423 872T283 639Q266 583 266 500V0H180Z" />
<glyph unicode="n" glyph-name="n" horiz-adv-x="1200" d="M180 0V1024H266V844Q266 823 264 802T260 770L258 760H262Q274 792 296 827T356 903T442 975T556 1028T696 1049Q794 1049 861 1022T965 939T1018 815T1034 649V0H948V618Q948 680 944 724T926 816T885
895T811 945T696 965Q552 965 437 874T283 639Q266 583 266 500V0H180Z" />
<glyph unicode="o" glyph-name="o" horiz-adv-x="1269" d="M104 518Q104 665 175 787T368 979T635 1049T901 979T1094 787T1165 518Q1165 368 1094 243T902 47T635 -25Q527 -25 429 17T260 132T146 305T104 518ZM195 518Q195 324 323 192T635 59T947 191T1075
518Q1075 707 947 836T635 965T323 836T195 518Z" />
<glyph unicode="p" glyph-name="p" horiz-adv-x="1185" d="M180 -410V1024H266V901Q266 880 265 860T262 829L260 819H264Q267 828 274 843T312 899T380 969T485 1024T633 1049Q836 1049 955 901T1075 512Q1075 270 948 123T621 -25Q546 -25 482 -1T379 57T312
125T273 183L262 207H258Q266 170 266 117V-410H180ZM264 510Q264 424 288 344T356 200T469 98T621 59Q777 59 881 181T985 512Q985 717 886 841T629 965Q556 965 492 939T376 859T294 716T264 510Z" />
<glyph unicode="q" glyph-name="q" horiz-adv-x="1187" d="M113 512Q113 754 240 901T571 1049Q643 1049 706 1026T807 968T873 900T912 842L924 819H928Q922 854 922 901V1024H1008V-410H922V117Q922 141 924 163T928 196L930 207H926Q922 198 915 182T877 126T808
56T702 0T555 -25Q352 -25 233 123T113 512ZM203 512Q203 307 302 183T559 59Q632 59 696 85T812 165T894 308T924 514Q924 632 886 732T765 898T567 965Q411 965 307 843T203 512Z" />
<glyph unicode="r" glyph-name="r" horiz-adv-x="692" d="M180 0V1024H266V829Q266 808 264 787T260 756L258 745H262Q303 871 388 951T590 1032L649 1026V940Q625 944 602 944Q489 944 412 863T297 657Q266 561 266 442V0H180Z" />
<glyph unicode="s" glyph-name="s" horiz-adv-x="892" d="M92 123L147 188Q152 183 161 174T200 143T265 104T354 73T465 59Q564 59 632 110T700 252Q700 304 669 344T589 411T479 460T358 509T249 568T168 652T137 772Q137 903 232 976T465 1049Q524 1049 576
1038T662 1010T721 977T757 950L768 938L717 868Q714 872 707 878T676 901T625 931T553 954T459 965Q362 965 295 918T227 778Q227 731 251 693T315 632T405 585T509 543T612 498T703 441T767 362T791 252Q791 130 698 53T463 -25Q394 -25 330 -10T225 27T152 71T106
108L92 123Z" />
<glyph unicode="t" glyph-name="t" horiz-adv-x="643" d="M213 371V940H78V1018H213V1309H299V1018H567V940H299V377Q299 300 317 242T361 152T422 102T486 78T543 72L590 76V-4Q569 -8 539 -8Q500 -8 464 -2T379 28T297 90T238 201T213 371Z" />
<glyph unicode="u" glyph-name="u" horiz-adv-x="1189" d="M166 375V1024H252V406Q252 344 256 300T274 208T315 129T389 79T504 59Q628 59 725 126T873 298T924 524V1024H1010V0H924V180Q924 201 926 222T930 254L932 264H928Q916 232 895 197T835 121T751 49T640
-4T504 -25Q321 -25 244 73T166 375Z" />
<glyph unicode="v" glyph-name="v" horiz-adv-x="960" d="M440 0L37 1024H129L444 221Q452 199 461 172T474 128L479 111H483Q500 172 518 221L834 1024H924L522 0H440Z" />
<glyph unicode="w" glyph-name="w" horiz-adv-x="1632" d="M403 0L43 1024H135L414 221L449 111H453Q471 172 487 221L768 1020H864L1145 221L1180 111H1184Q1200 170 1219 221L1497 1024H1589L1229 0H1137L852 795L817 905H813Q797 844 778 795L496 0H403Z" />
<glyph unicode="x" glyph-name="x" horiz-adv-x="974" d="M59 0L428 541L98 1024H203L451 651L485 594H489L524 651L772 1024H877L547 541L915 0H809L526 424L489 483H485Q469 455 449 424L166 0H59Z" />
<glyph unicode="y" glyph-name="y" horiz-adv-x="1001" d="M16 -373L55 -299Q62 -304 73 -312T118 -334T182 -348Q304 -348 383 -164L457 6L33 1024H125L463 207L500 111H504Q518 158 539 207L877 1024H969L442 -240Q406 -325 340 -377T182 -430Q138 -430 97 -416T36
-388L16 -373Z" />
<glyph unicode="z" glyph-name="z" horiz-adv-x="1026" d="M90 0V70L711 850L791 944V948Q754 944 686 944H117V1024H907V954L285 174Q269 153 249 130T216 93L203 80V76Q242 80 309 80H930V0H90Z" />
<glyph unicode="{" glyph-name="braceleft" horiz-adv-x="665" d="M287 180V373Q287 434 269 481T226 553T175 593T131 612L113 616V698Q120 699 132 702T174 721T226 761T268 833T287 942V1108Q287 1207 310 1280T365 1391T439 1450T510 1478T565 1483H584V1403H571Q552
1403 532 1399T482 1378T430 1331T392 1245T375 1110V920Q375 864 359 817T318 742T270 694T230 666L213 659V655Q220 653 230 648T269 623T318 577T357 502T375 395V178Q375 101 391 44T430 -43T482 -89T532 -111T571 -115H584V-195Q578 -197 565 -197Q538 -197
511 -192T440 -165T366 -105T311 7T287 180Z" />
<glyph unicode="|" glyph-name="bar" horiz-adv-x="542" d="M227 -317V1608H315V-317H227Z" />
<glyph unicode="}" glyph-name="braceright" horiz-adv-x="665" d="M82 -115H94Q113 -115 133 -111T183 -90T235 -43T274 43T291 178V395Q291 453 307 501T348 576T396 623T436 648L453 655V659Q446 662 436 667T397 693T348 742T309 816T291 920V1110Q291 1187
275 1244T236 1331T183 1377T133 1399T94 1403H82V1483H100Q127 1483 155 1478T226 1451T300 1391T355 1281T379 1108V942Q379 881 397 833T440 761T491 722T535 702L553 698V616Q546 615 534 612T492 593T440 554T398 482T379 373V180Q379 81 356 7T301 -104T226
-164T155 -192T100 -197L82 -195V-115Z" />
<glyph unicode="~" glyph-name="asciitilde" horiz-adv-x="1212" d="M162 436Q162 588 226 659T397 731Q452 731 496 715T568 673T624 619T677 564T738 523T819 506Q858 506 887 522T932 562T958 617T970 673T973 723H1055Q1055 571 991 500T819 428Q765 428 721
444T649 486T593 540T540 595T478 636T397 653Q349 653 316 630T269 570T249 501T244 436H162Z" />
</font>
</defs>
</svg>
